# xmcd CD database file
#
# Track frame offsets:
#	150
#	20065
#	57301
#	82449
#	117768
#	149796
#	164858
#	218409
#	253239
#	278441
#
# Disc length: 3949 seconds
#
# Revision: 0
# Processed by: cddbd v1.5.1PL2 Copyright (c) Steve Scherf et al.
# Submitted via: CDex 1.51
#
DISCID=9e0f6b0a
DTITLE=Maxx Furian,Marco Bianchi,Massimo Scoca - Japanese era
DYEAR=2004
DGENRE=Jazz
TTITLE0=For you
TTITLE1=Over the rainbow
TTITLE2=Melancholy song
TTITLE3=A short time ago
TTITLE4=Japanese era
TTITLE5=Frammenti
TTITLE6=Psycho song
TTITLE7=Round about midnight
TTITLE8=Easy love today
TTITLE9=Con calma tu
EXTD=YEAR: 2004
EXTT0=
EXTT1=
EXTT2=
EXTT3=
EXTT4=
EXTT5=
EXTT6=
EXTT7=
EXTT8=
EXTT9=
PLAYORDER=
